<?xml version="1.0" encoding="UTF-8"?>
<svg version="1.1" xmlns="http://www.w3.org/2000/svg" width="185" height="40">
<path d="M0 0 C0.86882813 0.00644531 1.73765625 0.01289062 2.6328125 0.01953125 C4.875 0.1875 4.875 0.1875 6.875 1.1875 C5.125 5.0625 5.125 5.0625 2.875 6.1875 C3.29652344 6.66960938 3.71804687 7.15171875 4.15234375 7.6484375 C4.70019531 8.28007812 5.24804688 8.91171875 5.8125 9.5625 C6.35777344 10.18898438 6.90304688 10.81546875 7.46484375 11.4609375 C11.47877723 16.37550425 10.35321024 23.18192464 9.875 29.1875 C8.85853507 33.01810802 7.52152408 36.58572858 5.875 40.1875 C-2.45702349 38.62079473 -7.27038034 36.17634874 -12.125 29.1875 C-14.99482135 24.38153206 -14.80465392 19.63159655 -14.125 14.1875 C-10.96816558 3.50960189 -10.96816558 3.50960189 -7.2734375 0.859375 C-4.74724627 0.06936611 -2.64457094 -0.04341833 0 0 Z " fill="#F1CC14" transform="translate(33.125,-0.1875)"/>
<path d="M0 0 C0.886875 -0.00257812 1.77375 -0.00515625 2.6875 -0.0078125 C5 0.125 5 0.125 7 1.125 C6.3125 3.0625 6.3125 3.0625 5 5.125 C2.56968481 5.85409456 0.52838375 6.125 -2 6.125 C-1.67 6.681875 -1.34 7.23875 -1 7.8125 C0.1309601 10.42784522 0.15662974 12.3056646 0 15.125 C-2.64 13.805 -5.28 12.485 -8 11.125 C-8.125 4.5 -8.125 4.5 -7 1.125 C-4.51245214 -0.11877393 -2.77344699 -0.00806235 0 0 Z " fill="#767B44" transform="translate(33,-0.125)"/>
<path d="M0 0 C0.804375 0.185625 1.60875 0.37125 2.4375 0.5625 C3.283125 0.706875 4.12875 0.85125 5 1 C5.33 0.67 5.66 0.34 6 0 C7.66617115 -0.04063832 9.33388095 -0.042721 11 0 C11 2.97 11 5.94 11 9 C7.37 9 3.74 9 0 9 C0 6.03 0 3.06 0 0 Z " fill="#465B54" transform="translate(133,17)"/>
<path d="M0 0 C2.97 0 5.94 0 9 0 C9 2.64 9 5.28 9 8 C5.92677456 8.91058531 3.19902639 9.08886184 0 9 C0 6.03 0 3.06 0 0 Z " fill="#495E55" transform="translate(157,17)"/>
<path d="M0 0 C0.94875 0.04125 1.8975 0.0825 2.875 0.125 C3.5 3.5 3.5 3.5 3.875 7.125 C3.215 7.785 2.555 8.445 1.875 9.125 C-1.25 8.75 -1.25 8.75 -4.125 8.125 C-4.75 5.25 -4.75 5.25 -5.125 2.125 C-3.125 0.125 -3.125 0.125 0 0 Z M-1.125 2.125 C-1.125 3.445 -1.125 4.765 -1.125 6.125 C-0.465 6.125 0.195 6.125 0.875 6.125 C0.545 4.805 0.215 3.485 -0.125 2.125 C-0.455 2.125 -0.785 2.125 -1.125 2.125 Z " fill="#485D55" transform="translate(151.125,16.875)"/>
<path d="M0 0 C2.31 0 4.62 0 7 0 C7 2.97 7 5.94 7 9 C4.69 9 2.38 9 0 9 C0 6.03 0 3.06 0 0 Z " fill="#495E55" transform="translate(123,17)"/>
<path d="M0 0 C2.31 0 4.62 0 7 0 C7 2.97 7 5.94 7 9 C4.69 9 2.38 9 0 9 C0 6.03 0 3.06 0 0 Z " fill="#495D55" transform="translate(98,17)"/>
<path d="M0 0 C2.64 0 5.28 0 8 0 C8 1.32 8 2.64 8 4 C7.34 4 6.68 4 6 4 C6 5.65 6 7.3 6 9 C4.35 8.67 2.7 8.34 1 8 C1.33 6.68 1.66 5.36 2 4 C1.34 4 0.68 4 0 4 C0 2.68 0 1.36 0 0 Z " fill="#465B54" transform="translate(78,17)"/>
<path d="M0 0 C2.64 0 5.28 0 8 0 C8 1.32 8 2.64 8 4 C7.34 4 6.68 4 6 4 C6 5.65 6 7.3 6 9 C4.35 8.67 2.7 8.34 1 8 C1.33 6.68 1.66 5.36 2 4 C1.34 4 0.68 4 0 4 C0 2.68 0 1.36 0 0 Z " fill="#445851" transform="translate(68,17)"/>
<path d="M0 0 C1.65 0 3.3 0 5 0 C5 1.65 5 3.3 5 5 C5.99 5 6.98 5 8 5 C7.67 6.32 7.34 7.64 7 9 C4.69 9 2.38 9 0 9 C0 6.03 0 3.06 0 0 Z " fill="#465D56" transform="translate(88,17)"/>
<path d="M0 0 C1.65 0 3.3 0 5 0 C5 1.65 5 3.3 5 5 C5.99 5.33 6.98 5.66 8 6 C7.67 6.99 7.34 7.98 7 9 C4.69 9 2.38 9 0 9 C0 6.03 0 3.06 0 0 Z " fill="#475C55" transform="translate(113,17)"/>
<path d="M0 0 C1.65 0 3.3 0 5 0 C4.34 1.98 3.68 3.96 3 6 C4.32 5.67 5.64 5.34 7 5 C7 6.32 7 7.64 7 9 C4.69 9 2.38 9 0 9 C0 6.03 0 3.06 0 0 Z " fill="#4B5E54" transform="translate(52,17)"/>
<path d="M0 0 C1.62490954 -0.02698189 3.24994633 -0.04638757 4.875 -0.0625 C5.77992187 -0.07410156 6.68484375 -0.08570313 7.6171875 -0.09765625 C10 -0 10 -0 12 1 C11.3125 2.9375 11.3125 2.9375 10 5 C7.625 5.9375 7.625 5.9375 5 6 C2.6875 4.5625 2.6875 4.5625 1 3 C2.98 2.67 4.96 2.34 7 2 C4.69 1.67 2.38 1.34 0 1 C0 0.67 0 0.34 0 0 Z " fill="#485C53" transform="translate(28,0)"/>
<path d="M0 0 C1.65 0 3.3 0 5 0 C5 2.97 5 5.94 5 9 C3.35 9 1.7 9 0 9 C0 6.03 0 3.06 0 0 Z " fill="#495D54" transform="translate(61,17)"/>
<path d="M0 0 C6 6 6 6 7 9 C1.125 7.125 1.125 7.125 0 6 C-0.04080783 4.00041636 -0.04254356 1.99954746 0 0 Z " fill="#506253" transform="translate(25,5)"/>
<path d="M0 0 C0.99 0.33 1.98 0.66 3 1 C3.33 3.64 3.66 6.28 4 9 C0.06153846 5.67692308 0.06153846 5.67692308 -0.25 2.25 C-0.1675 1.5075 -0.085 0.765 0 0 Z " fill="#6B7448" transform="translate(29,6)"/>
</svg>
